<svg width="70" height="32" viewBox="0 0 70 32" fill="none" xmlns="http://www.w3.org/2000/svg">
<circle opacity="0.2" cx="34" cy="16" r="16" fill="#D476F8"/>
<path d="M12.4525 15.0813C12.4644 15.0813 12.4703 15.0992 12.4703 15.1348C12.4703 15.1942 12.4377 15.3042 12.3723 15.4646C12.3069 15.6191 12.2118 15.8004 12.0871 16.0084C11.9623 16.2164 11.8078 16.4362 11.6235 16.668C11.4453 16.8997 11.2402 17.1196 11.0085 17.3276C10.8896 17.3573 10.7381 17.39 10.5539 17.4257C10.3697 17.4554 10.1587 17.4851 9.92101 17.5148C9.68925 17.5445 9.4367 17.5772 9.16334 17.6128C8.88999 17.6426 8.60475 17.6723 8.30762 17.702C7.95701 18.2546 7.61532 18.8043 7.28254 19.351C6.9557 19.8977 6.64669 20.4266 6.35551 20.9377C6.06433 21.4547 5.79394 21.9509 5.54436 22.4263C5.30071 22.9017 5.08976 23.3444 4.91148 23.7544C4.78075 23.8079 4.58761 23.8614 4.33209 23.9149C4.07656 23.9743 3.80915 24.0307 3.52985 24.0842C3.25649 24.1377 3.00096 24.1882 2.76326 24.2358C2.52556 24.2833 2.35917 24.3219 2.26409 24.3516C2.82269 23.1572 3.38426 22.0311 3.94879 20.9733C4.51927 19.9215 5.10164 18.9083 5.69589 17.9337C5.38688 17.9575 5.0957 17.9813 4.82234 18.005C4.54899 18.0229 4.30832 18.0377 4.10033 18.0496C3.89234 18.0615 3.72298 18.0734 3.59224 18.0853C3.46151 18.0912 3.38426 18.0942 3.36049 18.0942C3.32483 18.0942 3.307 18.0704 3.307 18.0229C3.307 17.9575 3.33672 17.8624 3.39614 17.7376C3.45557 17.6128 3.52391 17.4881 3.60116 17.3633C3.68435 17.2325 3.76755 17.1196 3.85074 17.0245C3.93988 16.9235 4.00822 16.8671 4.05576 16.8552C4.51927 16.8136 4.95605 16.769 5.36608 16.7215C5.78206 16.6739 6.17723 16.6234 6.55161 16.5699C7.52024 15.0665 8.51264 13.6551 9.52881 12.3359C10.545 11.0167 11.576 9.73011 12.6219 8.47624C12.6456 8.45247 12.6575 8.40196 12.6575 8.32471C12.6575 8.28905 12.6456 8.2534 12.6219 8.21774C12.6041 8.18209 12.5595 8.17614 12.4882 8.19991C11.2224 8.54458 10.0785 8.92787 9.05638 9.34979C8.03427 9.77171 7.12506 10.1996 6.32877 10.6334C5.53247 11.0612 4.84314 11.4802 4.26078 11.8902C3.68435 12.3002 3.20895 12.6716 2.83457 13.0044C2.4602 13.3313 2.18387 13.6017 2.0056 13.8156C1.82732 14.0295 1.73818 14.1543 1.73818 14.19C1.73818 14.2078 1.74413 14.2345 1.75601 14.2702C1.77384 14.2999 1.82732 14.3148 1.91646 14.3148C2.10662 14.3148 2.30866 14.288 2.52259 14.2345C2.74247 14.181 2.95937 14.1127 3.1733 14.0295C3.39317 13.9463 3.60413 13.8572 3.80617 13.7621C4.00822 13.6611 4.19541 13.566 4.36774 13.4769C4.37368 13.6135 4.37963 13.774 4.38557 13.9582C4.39745 14.1365 4.40637 14.3177 4.41231 14.5019C4.42419 14.6862 4.43311 14.8644 4.43905 15.0368C4.45094 15.2032 4.45688 15.3398 4.45688 15.4468C4.38557 15.4825 4.26969 15.5211 4.10924 15.5627C3.94879 15.5983 3.75269 15.634 3.52093 15.6696C3.29512 15.6994 3.03662 15.7261 2.74544 15.7499C2.4602 15.7677 2.15416 15.7766 1.82732 15.7766C1.79167 15.7766 1.76195 15.7736 1.73818 15.7677C1.72036 15.7618 1.70253 15.7588 1.6847 15.7588C1.63122 15.7528 1.55099 15.7053 1.44403 15.6162C1.34301 15.527 1.2301 15.4141 1.10531 15.2774C0.980513 15.1408 0.852749 14.9922 0.722014 14.8318C0.591279 14.6654 0.472429 14.5079 0.365464 14.3593C0.258499 14.2048 0.169361 14.0652 0.0980513 13.9404C0.0326838 13.8096 0 13.7146 0 13.6551C0 13.2926 0.133706 12.9183 0.401119 12.532C0.674474 12.1398 1.03994 11.7506 1.49751 11.3643C1.96103 10.978 2.49585 10.5977 3.10199 10.2233C3.70812 9.84896 4.34694 9.49538 5.01845 9.1626C5.68995 8.82982 6.37334 8.52378 7.06861 8.24448C7.76388 7.95924 8.42944 7.7156 9.06529 7.51356C9.70114 7.31151 10.2865 7.15403 10.8213 7.04113C11.3621 6.92228 11.8078 6.86285 12.1584 6.86285C12.2594 6.86285 12.3753 6.90148 12.506 6.97873C12.6427 7.05598 12.7764 7.157 12.9071 7.2818C13.0438 7.40659 13.1775 7.54624 13.3082 7.70074C13.439 7.85525 13.5549 8.00975 13.6559 8.16426C13.7628 8.31876 13.849 8.46733 13.9144 8.60995C13.9797 8.74662 14.0154 8.85953 14.0213 8.94867C14.0213 8.98433 13.9589 9.10318 13.8342 9.30522C13.7153 9.50132 13.5489 9.76279 13.335 10.0896C13.1211 10.4105 12.8685 10.7908 12.5773 11.2306C12.2861 11.6644 11.9682 12.1398 11.6235 12.6568C11.2789 13.1678 10.9134 13.7116 10.5271 14.288C10.1468 14.8585 9.76056 15.4468 9.36836 16.0529C9.90318 15.9281 10.3608 15.8093 10.7411 15.6964C11.1214 15.5775 11.4363 15.4735 11.6859 15.3844C11.9355 15.2953 12.1227 15.224 12.2475 15.1705C12.3723 15.111 12.4406 15.0813 12.4525 15.0813Z" fill="#111212"/>
<path d="M11.579 21.321C11.888 20.7921 12.2148 20.1919 12.5595 19.5204C12.9041 18.8429 13.2548 18.118 13.6113 17.3454C13.9679 16.567 14.3244 15.7469 14.681 14.8852C15.0375 14.0236 15.3822 13.1411 15.715 12.2378C16.0477 11.3286 16.3627 10.4046 16.6598 9.46567C16.9569 8.52675 17.2243 7.59378 17.462 6.66675C17.6344 6.83314 17.8127 6.99953 17.9969 7.16592C18.187 7.32637 18.3713 7.48681 18.5495 7.64726C18.7278 7.80177 18.8942 7.95627 19.0487 8.11078C19.2091 8.25934 19.3429 8.39899 19.4498 8.52972C19.2299 9.17151 18.9744 9.84896 18.6832 10.5621C18.3921 11.2692 18.083 11.9912 17.7562 12.7281C17.4294 13.459 17.0906 14.187 16.74 14.912C16.3954 15.637 16.0537 16.3322 15.715 16.9978C15.3822 17.6634 15.0642 18.2873 14.7612 18.8697C14.4581 19.4461 14.1877 19.9542 13.95 20.3939C14.3066 20.3939 14.7285 20.3969 15.2158 20.4029C15.7031 20.4029 16.232 20.4058 16.8024 20.4118C17.3729 20.4177 17.9731 20.4266 18.603 20.4385C19.2329 20.4504 19.8688 20.4652 20.5106 20.4831C20.4155 20.6138 20.3055 20.7564 20.1807 20.9109C20.056 21.0654 19.9222 21.2229 19.7796 21.3834C19.643 21.5498 19.5003 21.7102 19.3518 21.8647C19.2091 22.0252 19.0665 22.1737 18.9239 22.3104C18.3891 22.2807 17.8721 22.2421 17.3729 22.1945C16.8797 22.147 16.4013 22.0905 15.9378 22.0252C15.4743 21.9657 15.0197 21.9033 14.574 21.838C14.1342 21.7726 13.6975 21.7072 13.2637 21.6419C13.1983 21.7607 13.1448 21.8469 13.1032 21.9004C13.0676 21.9538 13.0527 21.9746 13.0587 21.9628L11.579 21.321Z" fill="#111212"/>
<path d="M22.846 19.8502C22.846 20.0285 22.9113 20.1176 23.0421 20.1176C23.1787 20.1176 23.36 20.0106 23.5858 19.7967C23.8116 19.5768 24.0463 19.3005 24.29 18.9677C24.2781 18.9024 24.2692 18.8459 24.2632 18.7984C24.2632 18.7449 24.2632 18.6974 24.2632 18.6558C24.2632 18.5369 24.2751 18.3973 24.2989 18.2368C24.3286 18.0704 24.397 17.8832 24.5039 17.6752C24.5752 17.5148 24.6614 17.3573 24.7624 17.2028C24.8456 17.0661 24.9466 16.9205 25.0655 16.766C25.1843 16.6056 25.3151 16.457 25.4577 16.3203L25.5112 16.2669C25.5706 16.3382 25.6478 16.4362 25.7429 16.561C25.844 16.6799 25.942 16.8047 26.0371 16.9354C26.1381 17.0602 26.2243 17.1761 26.2956 17.283C26.3728 17.39 26.4204 17.4643 26.4382 17.5059C26.4382 17.7614 26.3907 18.0169 26.2956 18.2725C26.2064 18.528 26.0846 18.7805 25.9301 19.0301C26.2867 19.0064 26.6165 18.9172 26.9195 18.7627C27.2286 18.6023 27.5494 18.3438 27.8822 17.9872C27.9357 18.0407 28.0041 18.115 28.0872 18.2101C28.1764 18.2992 28.2477 18.3765 28.3012 18.4418C28.0516 18.7033 27.805 18.9202 27.5613 19.0925C27.3236 19.2649 27.083 19.4015 26.8393 19.5026C26.6016 19.6036 26.358 19.6779 26.1084 19.7254C25.8588 19.767 25.6033 19.7878 25.3418 19.7878C25.1398 20.0017 24.9229 20.1978 24.6911 20.3761C24.4594 20.5544 24.2216 20.7089 23.978 20.8396C23.7403 20.9704 23.5026 21.0714 23.2649 21.1427C23.0272 21.214 22.8014 21.2497 22.5875 21.2497C22.4092 21.2497 22.225 21.1962 22.0348 21.0892C21.8446 20.9822 21.6723 20.8515 21.5178 20.697C21.3633 20.5366 21.2355 20.3672 21.1345 20.1889C21.0335 20.0106 20.983 19.8532 20.983 19.7165C20.983 19.2649 21.0454 18.8162 21.1702 18.3705C21.289 17.9248 21.4792 17.5089 21.7407 17.1226C21.9962 16.7304 22.323 16.3857 22.7212 16.0886C23.1253 15.7915 23.6036 15.5656 24.1563 15.4111C24.1741 15.3993 24.2038 15.3903 24.2454 15.3844C24.293 15.3785 24.3316 15.3755 24.3613 15.3755C24.4445 15.3755 24.5307 15.4082 24.6198 15.4735C24.7149 15.533 24.801 15.6013 24.8783 15.6786C24.9615 15.7558 25.0298 15.8331 25.0833 15.9103C25.1368 15.9816 25.1635 16.0292 25.1635 16.0529C25.1516 16.0826 25.1071 16.1213 25.0298 16.1688C24.9526 16.2104 24.8486 16.2847 24.7178 16.3917C24.5871 16.4986 24.4326 16.6531 24.2543 16.8552C24.0761 17.0513 23.88 17.3127 23.666 17.6396C23.3451 18.1209 23.1282 18.5577 23.0153 18.9499C22.9024 19.3362 22.846 19.6363 22.846 19.8502Z" fill="#111212"/>
<path d="M32.0806 21.2497C31.9974 21.2497 31.8845 21.2199 31.7419 21.1605C31.6052 21.1011 31.4626 21.0209 31.314 20.9198C31.1714 20.8248 31.0347 20.7148 30.904 20.59C30.7733 20.4593 30.6812 20.3226 30.6277 20.18C30.3187 20.4712 30.0096 20.7178 29.7006 20.9198C29.3916 21.1219 29.1034 21.2318 28.836 21.2497C28.7469 21.2497 28.6161 21.211 28.4438 21.1338C28.2774 21.0565 28.114 20.9555 27.9535 20.8307C27.7871 20.7119 27.6445 20.5752 27.5257 20.4207C27.4009 20.2602 27.3385 20.0998 27.3385 19.9393C27.3385 19.5471 27.3831 19.146 27.4722 18.736C27.5554 18.32 27.6624 17.907 27.7931 17.497C27.9179 17.0869 28.0546 16.6888 28.2031 16.3025C28.3517 15.9103 28.4884 15.5389 28.6132 15.1883C28.9162 15.325 29.2134 15.4795 29.5045 15.6518C29.7957 15.8182 30.0661 16.0113 30.3157 16.2312C30.2265 16.4095 30.1344 16.6204 30.0394 16.8641C29.9443 17.1077 29.8522 17.3603 29.763 17.6218C29.6739 17.8832 29.5877 18.1477 29.5045 18.4151C29.4273 18.6825 29.3589 18.9291 29.2995 19.1549C29.2401 19.3807 29.1926 19.5798 29.1569 19.7521C29.1212 19.9245 29.1034 20.0463 29.1034 20.1176C29.1034 20.1651 29.1123 20.2097 29.1302 20.2513C29.1539 20.287 29.1896 20.3048 29.2371 20.3048C29.3263 20.3048 29.4243 20.2721 29.5313 20.2067C29.6442 20.1414 29.7601 20.0552 29.8789 19.9482C30.0037 19.8413 30.1285 19.7195 30.2533 19.5828C30.384 19.4402 30.5118 19.2916 30.6366 19.1371C30.6782 18.8221 30.7406 18.5102 30.8238 18.2012C30.907 17.8921 30.9991 17.5861 31.1001 17.283C31.2011 16.98 31.3081 16.6828 31.421 16.3917C31.5339 16.0945 31.6438 15.8034 31.7508 15.5181C32.0539 15.6548 32.351 15.8093 32.6422 15.9816C32.9334 16.148 33.2037 16.3411 33.4533 16.561C33.3642 16.7393 33.2751 16.9413 33.1859 17.1672C33.0968 17.393 33.0106 17.6277 32.9274 17.8713C32.8502 18.109 32.7759 18.3467 32.7046 18.5844C32.6333 18.8162 32.5709 19.0361 32.5174 19.2441C32.4698 19.4461 32.4312 19.6244 32.4015 19.7789C32.3718 19.9334 32.3569 20.0463 32.3569 20.1176C32.3569 20.1651 32.3659 20.2097 32.3837 20.2513C32.4015 20.287 32.4342 20.3048 32.4817 20.3048C32.5768 20.3048 32.6867 20.2721 32.8115 20.2067C32.9363 20.1354 33.0641 20.0433 33.1948 19.9304C33.3315 19.8116 33.4682 19.6749 33.6049 19.5204C33.7415 19.3659 33.8752 19.2054 34.006 19.039C33.9525 18.8548 33.9258 18.6439 33.9258 18.4062C33.9258 18.216 33.9584 17.9872 34.0238 17.7198C34.0892 17.4465 34.1724 17.1761 34.2734 16.9087C34.3744 16.6412 34.4844 16.3946 34.6032 16.1688C34.728 15.9371 34.8439 15.7647 34.9508 15.6518C35.0875 15.6994 35.2272 15.7707 35.3698 15.8657C35.5183 15.9549 35.655 16.0529 35.7798 16.1599C35.9046 16.2609 36.0056 16.3619 36.0829 16.463C36.1661 16.564 36.2136 16.6442 36.2255 16.7036C36.2255 16.8344 36.1928 16.9919 36.1275 17.1761C36.0621 17.3603 35.97 17.5594 35.8511 17.7733C35.7382 17.9872 35.6015 18.2101 35.4411 18.4418C35.2866 18.6736 35.1172 18.9053 34.933 19.1371C35.04 19.2678 35.2212 19.3332 35.4768 19.3332C35.7739 19.3332 36.071 19.2292 36.3681 19.0212C36.6653 18.8073 37.0069 18.522 37.3932 18.1655C37.4526 18.219 37.5239 18.2903 37.6071 18.3794C37.6903 18.4626 37.7587 18.5369 37.8122 18.6023C37.313 19.0955 36.8643 19.455 36.4662 19.6808C36.074 19.9007 35.6907 20.0106 35.3163 20.0106C34.9598 20.0106 34.6656 19.9126 34.4338 19.7165C34.2377 19.9245 34.0357 20.1206 33.8277 20.3048C33.6257 20.4831 33.4236 20.6405 33.2216 20.7772C33.0195 20.9139 32.8205 21.0238 32.6243 21.107C32.4342 21.1902 32.2529 21.2378 32.0806 21.2497Z" fill="#111212"/>
<path d="M43.5883 18.5666C43.0416 19.1014 42.5246 19.5501 42.0373 19.9126C41.5559 20.2751 41.0954 20.5663 40.6556 20.7861C40.2159 21.006 39.794 21.1635 39.3899 21.2586C38.9917 21.3537 38.6025 21.4012 38.2222 21.4012C38.0617 21.4012 37.8835 21.3418 37.6874 21.2229C37.4913 21.1041 37.31 20.9585 37.1436 20.7861C36.9713 20.6198 36.8287 20.4444 36.7158 20.2602C36.6029 20.076 36.5464 19.9185 36.5464 19.7878C36.5464 19.3005 36.6147 18.8548 36.7514 18.4507C36.8822 18.0407 37.0575 17.6723 37.2773 17.3454C37.4972 17.0186 37.7468 16.7304 38.0261 16.4808C38.3113 16.2312 38.6055 16.0232 38.9085 15.8568C39.2176 15.6904 39.5236 15.5656 39.8267 15.4825C40.1297 15.3993 40.409 15.3577 40.6646 15.3577C40.8488 15.3577 41.03 15.4111 41.2083 15.5181C41.3925 15.6251 41.5589 15.7558 41.7075 15.9103C41.856 16.0648 41.9749 16.2282 42.064 16.4006C42.1591 16.567 42.2066 16.7126 42.2066 16.8373C42.2066 17.0394 42.1205 17.2474 41.9481 17.4613C41.7817 17.6693 41.5441 17.8832 41.235 18.1031C40.926 18.323 40.5546 18.5488 40.1208 18.7805C39.687 19.0064 39.2086 19.2351 38.6857 19.4669C38.6679 19.6095 38.659 19.7492 38.659 19.8859C38.659 20.0701 38.6976 20.1949 38.7748 20.2602C38.858 20.3256 39.0096 20.3583 39.2294 20.3583C39.6216 20.3583 39.9901 20.2929 40.3347 20.1622C40.6854 20.0314 41.0211 19.8621 41.342 19.6541C41.6629 19.4461 41.9719 19.2084 42.269 18.941C42.5662 18.6736 42.8603 18.4032 43.1515 18.1298L43.5883 18.5666ZM40.4506 16.3382C40.3318 16.3382 40.201 16.4035 40.0584 16.5343C39.9158 16.6591 39.7732 16.8255 39.6306 17.0334C39.4879 17.2414 39.3513 17.4821 39.2205 17.7555C39.0898 18.0229 38.9769 18.3022 38.8818 18.5934C39.1017 18.4507 39.3156 18.2992 39.5236 18.1388C39.7375 17.9783 39.9277 17.8119 40.0941 17.6396C40.2605 17.4613 40.3942 17.2801 40.4952 17.0958C40.5962 16.9116 40.6467 16.7274 40.6467 16.5432C40.6467 16.4897 40.6289 16.4422 40.5932 16.4006C40.5635 16.359 40.516 16.3382 40.4506 16.3382Z" fill="#111212"/>
<path d="M45.0412 20.1354C45.1363 20.1354 45.2641 20.0938 45.4245 20.0106C45.5909 19.9274 45.7721 19.8235 45.9682 19.6987C46.1643 19.5679 46.3694 19.4253 46.5833 19.2708C46.7972 19.1163 46.9963 18.9648 47.1805 18.8162C47.3707 18.6676 47.54 18.531 47.6886 18.4062C47.8372 18.2814 47.9471 18.1893 48.0184 18.1298C48.0719 18.1833 48.1343 18.2517 48.2056 18.3349C48.2828 18.4181 48.3542 18.4953 48.4195 18.5666C48.2888 18.6974 48.1254 18.8578 47.9293 19.048C47.7332 19.2322 47.5192 19.4223 47.2875 19.6184C47.0617 19.8145 46.824 20.0106 46.5744 20.2067C46.3307 20.4028 46.0901 20.5782 45.8524 20.7327C45.6206 20.8872 45.4037 21.012 45.2017 21.107C44.9996 21.2021 44.8303 21.2497 44.6936 21.2497C44.5094 21.2497 44.3133 21.1843 44.1053 21.0536C43.9032 20.9228 43.7131 20.7713 43.5348 20.599C43.3565 20.4207 43.205 20.2424 43.0802 20.0641C42.9554 19.8859 42.8841 19.7521 42.8663 19.663C42.8544 19.6274 42.8484 19.5858 42.8484 19.5382C42.8484 19.4847 42.8484 19.4283 42.8484 19.3689C42.8484 19.0717 42.8871 18.6974 42.9643 18.2457C43.0356 17.7881 43.1337 17.3068 43.2585 16.8017C43.3833 16.2906 43.5259 15.7855 43.6863 15.2864C43.8527 14.7812 44.025 14.3356 44.2033 13.9493C44.5658 13.1589 44.9372 12.4577 45.3175 11.8456C45.7038 11.2336 46.0812 10.7017 46.4496 10.2501C46.818 9.79251 47.1716 9.40921 47.5103 9.1002C47.849 8.79119 48.1521 8.54161 48.4195 8.35145C48.6929 8.16129 48.9217 8.02461 49.1059 7.94142C49.296 7.85822 49.4268 7.81662 49.4981 7.81662C49.611 7.85822 49.7239 7.92062 49.8368 8.00381C49.9557 8.08106 50.0656 8.16426 50.1666 8.2534C50.2676 8.34253 50.3568 8.43167 50.434 8.52081C50.5113 8.604 50.5677 8.6664 50.6034 8.708C50.6509 8.75554 50.6806 8.80308 50.6925 8.85062C50.7104 8.89222 50.7193 8.94867 50.7193 9.01998C50.7193 9.1626 50.6836 9.3587 50.6123 9.60829C50.541 9.85787 50.4073 10.1758 50.2112 10.5621C50.0151 10.9424 49.7417 11.4 49.3911 11.9348C49.0465 12.4696 48.5948 13.0936 48.0362 13.8067C47.7748 14.1394 47.4984 14.4782 47.2073 14.8228C46.9577 15.12 46.6695 15.4438 46.3426 15.7944C46.0158 16.145 45.68 16.4808 45.3354 16.8017C45.163 17.4554 45.0412 18.0318 44.9699 18.531C44.9045 19.0301 44.8718 19.4194 44.8718 19.6987C44.8718 19.8829 44.8867 20.0017 44.9164 20.0552C44.9461 20.1087 44.9877 20.1354 45.0412 20.1354ZM46.4674 13.6017C46.3664 13.8275 46.2713 14.0473 46.1822 14.2613C46.099 14.4752 46.0188 14.6862 45.9415 14.8941C46.1257 14.6862 46.2921 14.4871 46.4407 14.2969C46.5952 14.1068 46.7259 13.9433 46.8329 13.8067C46.9577 13.6462 47.0706 13.4947 47.1716 13.3521C47.5876 12.7697 47.9471 12.2349 48.2502 11.7476C48.5532 11.2603 48.8028 10.8324 48.9989 10.464C49.195 10.0896 49.3376 9.78062 49.4268 9.53698C49.5219 9.28739 49.5694 9.10912 49.5694 9.00215C49.5694 8.97244 49.5664 8.95164 49.5605 8.93976C49.5605 8.92193 49.5456 8.91302 49.5159 8.91302C49.4624 8.91302 49.3406 9.00215 49.1505 9.18043C48.9603 9.35276 48.7256 9.62909 48.4463 10.0094C48.1729 10.3897 47.8639 10.877 47.5192 11.4713C47.1805 12.0596 46.8299 12.7697 46.4674 13.6017Z" fill="#111212"/>
<path d="M49.0881 19.8502C49.0881 20.0285 49.1534 20.1176 49.2842 20.1176C49.4208 20.1176 49.6021 20.0106 49.8279 19.7967C50.0537 19.5768 50.2884 19.3005 50.5321 18.9677C50.5202 18.9024 50.5113 18.8459 50.5053 18.7984C50.5053 18.7449 50.5053 18.6974 50.5053 18.6558C50.5053 18.5369 50.5172 18.3973 50.541 18.2368C50.5707 18.0704 50.6391 17.8832 50.746 17.6752C50.8173 17.5148 50.9035 17.3573 51.0045 17.2028C51.0877 17.0661 51.1887 16.9205 51.3076 16.766C51.4264 16.6056 51.5572 16.457 51.6998 16.3203L51.7533 16.2669C51.8127 16.3382 51.8899 16.4362 51.985 16.561C52.0861 16.6799 52.1841 16.8047 52.2792 16.9354C52.3802 17.0602 52.4664 17.1761 52.5377 17.283C52.6149 17.39 52.6625 17.4643 52.6803 17.5059C52.6803 17.7614 52.6328 18.0169 52.5377 18.2725C52.4485 18.528 52.3267 18.7805 52.1722 19.0301C52.5288 19.0064 52.8586 18.9172 53.1616 18.7627C53.4707 18.6023 53.7915 18.3438 54.1243 17.9872C54.1778 18.0407 54.2462 18.115 54.3293 18.2101C54.4185 18.2992 54.4898 18.3765 54.5433 18.4418C54.2937 18.7033 54.0471 18.9202 53.8034 19.0925C53.5657 19.2649 53.3251 19.4015 53.0814 19.5026C52.8437 19.6036 52.6001 19.6779 52.3505 19.7254C52.1009 19.767 51.8454 19.7878 51.5839 19.7878C51.3819 20.0017 51.165 20.1978 50.9332 20.3761C50.7014 20.5544 50.4637 20.7089 50.2201 20.8396C49.9824 20.9704 49.7447 21.0714 49.507 21.1427C49.2693 21.214 49.0435 21.2497 48.8296 21.2497C48.6513 21.2497 48.4671 21.1962 48.2769 21.0892C48.0868 20.9822 47.9144 20.8515 47.7599 20.697C47.6054 20.5366 47.4776 20.3672 47.3766 20.1889C47.2756 20.0106 47.2251 19.8532 47.2251 19.7165C47.2251 19.2649 47.2875 18.8162 47.4123 18.3705C47.5311 17.9248 47.7213 17.5089 47.9828 17.1226C48.2383 16.7304 48.5651 16.3857 48.9633 16.0886C49.3674 15.7915 49.8457 15.5656 50.3984 15.4111C50.4162 15.3993 50.4459 15.3903 50.4875 15.3844C50.5351 15.3785 50.5737 15.3755 50.6034 15.3755C50.6866 15.3755 50.7728 15.4082 50.8619 15.4735C50.957 15.533 51.0431 15.6013 51.1204 15.6786C51.2036 15.7558 51.2719 15.8331 51.3254 15.9103C51.3789 15.9816 51.4056 16.0292 51.4056 16.0529C51.3938 16.0826 51.3492 16.1213 51.2719 16.1688C51.1947 16.2104 51.0907 16.2847 50.9599 16.3917C50.8292 16.4986 50.6747 16.6531 50.4964 16.8552C50.3182 17.0513 50.1221 17.3127 49.9081 17.6396C49.5872 18.1209 49.3703 18.5577 49.2574 18.9499C49.1445 19.3362 49.0881 19.6363 49.0881 19.8502Z" fill="#111212"/>
<path d="M58.3227 21.2497C58.2395 21.2497 58.1266 21.2199 57.984 21.1605C57.8473 21.1011 57.7047 21.0209 57.5561 20.9198C57.4135 20.8248 57.2768 20.7148 57.1461 20.59C57.0154 20.4593 56.9233 20.3226 56.8698 20.18C56.5608 20.4712 56.2518 20.7178 55.9427 20.9198C55.6337 21.1219 55.3455 21.2318 55.0781 21.2497C54.989 21.2497 54.8582 21.211 54.6859 21.1338C54.5195 21.0565 54.3561 20.9555 54.1956 20.8307C54.0293 20.7119 53.8866 20.5752 53.7678 20.4207C53.643 20.2602 53.5806 20.0998 53.5806 19.9393C53.5806 19.5471 53.6252 19.146 53.7143 18.736C53.7975 18.32 53.9045 17.907 54.0352 17.497C54.16 17.0869 54.2967 16.6888 54.4452 16.3025C54.5938 15.9103 54.7305 15.5389 54.8553 15.1883C55.1583 15.325 55.4555 15.4795 55.7466 15.6518C56.0378 15.8182 56.3082 16.0113 56.5578 16.2312C56.4687 16.4095 56.3765 16.6204 56.2815 16.8641C56.1864 17.1077 56.0943 17.3603 56.0051 17.6218C55.916 17.8832 55.8298 18.1477 55.7466 18.4151C55.6694 18.6825 55.601 18.9291 55.5416 19.1549C55.4822 19.3807 55.4347 19.5798 55.399 19.7521C55.3633 19.9245 55.3455 20.0463 55.3455 20.1176C55.3455 20.1651 55.3544 20.2097 55.3723 20.2513C55.396 20.287 55.4317 20.3048 55.4792 20.3048C55.5684 20.3048 55.6664 20.2721 55.7734 20.2067C55.8863 20.1414 56.0022 20.0552 56.121 19.9482C56.2458 19.8413 56.3706 19.7195 56.4954 19.5828C56.6261 19.4402 56.7539 19.2916 56.8787 19.1371C56.9203 18.8221 56.9827 18.5102 57.0659 18.2012C57.1491 17.8921 57.2412 17.5861 57.3422 17.283C57.4432 16.98 57.5502 16.6828 57.6631 16.3917C57.776 16.0945 57.8859 15.8034 57.9929 15.5181C58.296 15.6548 58.5931 15.8093 58.8843 15.9816C59.1755 16.148 59.4458 16.3411 59.6954 16.561C59.6063 16.7393 59.5172 16.9413 59.428 17.1672C59.3389 17.393 59.2527 17.6277 59.1695 17.8713C59.0923 18.109 59.018 18.3467 58.9467 18.5844C58.8754 18.8162 58.813 19.0361 58.7595 19.2441C58.7119 19.4461 58.6733 19.6244 58.6436 19.7789C58.6139 19.9334 58.599 20.0463 58.599 20.1176C58.599 20.1651 58.608 20.2097 58.6258 20.2513C58.6436 20.287 58.6763 20.3048 58.7238 20.3048C58.8189 20.3048 58.9288 20.2721 59.0536 20.2067C59.1784 20.1354 59.3062 20.0433 59.4369 19.9304C59.5736 19.8116 59.7103 19.6749 59.847 19.5204C59.9836 19.3659 60.1173 19.2054 60.2481 19.039C60.1946 18.8548 60.1679 18.6439 60.1679 18.4062C60.1679 18.216 60.2005 17.9872 60.2659 17.7198C60.3313 17.4465 60.4145 17.1761 60.5155 16.9087C60.6165 16.6412 60.7265 16.3946 60.8453 16.1688C60.9701 15.9371 61.086 15.7647 61.1929 15.6518C61.3296 15.6994 61.4693 15.7707 61.6119 15.8657C61.7605 15.9549 61.8971 16.0529 62.0219 16.1599C62.1467 16.2609 62.2477 16.3619 62.325 16.463C62.4082 16.564 62.4557 16.6442 62.4676 16.7036C62.4676 16.8344 62.4349 16.9919 62.3696 17.1761C62.3042 17.3603 62.2121 17.5594 62.0932 17.7733C61.9803 17.9872 61.8436 18.2101 61.6832 18.4418C61.5287 18.6736 61.3593 18.9053 61.1751 19.1371C61.2821 19.2678 61.4633 19.3332 61.7189 19.3332C62.016 19.3332 62.3131 19.2292 62.6102 19.0212C62.9074 18.8073 63.249 18.522 63.6353 18.1655C63.6947 18.219 63.766 18.2903 63.8492 18.3794C63.9324 18.4626 64.0008 18.5369 64.0543 18.6023C63.5551 19.0955 63.1064 19.455 62.7083 19.6808C62.3161 19.9007 61.9328 20.0106 61.5584 20.0106C61.2019 20.0106 60.9077 19.9126 60.6759 19.7165C60.4798 19.9245 60.2778 20.1206 60.0698 20.3048C59.8678 20.4831 59.6657 20.6405 59.4637 20.7772C59.2616 20.9139 59.0626 21.0238 58.8665 21.107C58.6763 21.1902 58.495 21.2378 58.3227 21.2497Z" fill="#111212"/>
<path d="M69.8304 18.5666C69.2837 19.1014 68.7667 19.5501 68.2794 19.9126C67.798 20.2751 67.3375 20.5663 66.8977 20.7861C66.458 21.006 66.0361 21.1635 65.632 21.2586C65.2338 21.3537 64.8446 21.4012 64.4643 21.4012C64.3038 21.4012 64.1256 21.3418 63.9295 21.2229C63.7334 21.1041 63.5521 20.9585 63.3857 20.7861C63.2134 20.6198 63.0708 20.4444 62.9579 20.2602C62.845 20.076 62.7885 19.9185 62.7885 19.7878C62.7885 19.3005 62.8568 18.8548 62.9935 18.4507C63.1243 18.0407 63.2996 17.6723 63.5194 17.3454C63.7393 17.0186 63.9889 16.7304 64.2682 16.4808C64.5534 16.2312 64.8476 16.0232 65.1507 15.8568C65.4597 15.6904 65.7657 15.5656 66.0688 15.4825C66.3718 15.3993 66.6511 15.3577 66.9067 15.3577C67.0909 15.3577 67.2721 15.4111 67.4504 15.5181C67.6346 15.6251 67.801 15.7558 67.9496 15.9103C68.0981 16.0648 68.217 16.2282 68.3061 16.4006C68.4012 16.567 68.4487 16.7126 68.4487 16.8373C68.4487 17.0394 68.3626 17.2474 68.1902 17.4613C68.0238 17.6693 67.7861 17.8832 67.4771 18.1031C67.1681 18.323 66.7967 18.5488 66.3629 18.7805C65.9291 19.0064 65.4507 19.2351 64.9278 19.4669C64.91 19.6095 64.9011 19.7492 64.9011 19.8859C64.9011 20.0701 64.9397 20.1949 65.0169 20.2602C65.1001 20.3256 65.2517 20.3583 65.4715 20.3583C65.8637 20.3583 66.2322 20.2929 66.5769 20.1622C66.9275 20.0314 67.2632 19.8621 67.5841 19.6541C67.905 19.4461 68.214 19.2084 68.5111 18.941C68.8083 18.6736 69.1024 18.4032 69.3936 18.1298L69.8304 18.5666ZM66.6927 16.3382C66.5739 16.3382 66.4431 16.4035 66.3005 16.5343C66.1579 16.6591 66.0153 16.8255 65.8727 17.0334C65.73 17.2414 65.5934 17.4821 65.4626 17.7555C65.3319 18.0229 65.219 18.3022 65.1239 18.5934C65.3438 18.4507 65.5577 18.2992 65.7657 18.1388C65.9796 17.9783 66.1698 17.8119 66.3362 17.6396C66.5026 17.4613 66.6363 17.2801 66.7373 17.0958C66.8383 16.9116 66.8888 16.7274 66.8888 16.5432C66.8888 16.4897 66.871 16.4422 66.8354 16.4006C66.8056 16.359 66.7581 16.3382 66.6927 16.3382Z" fill="#111212"/>
</svg>
